<?xml version="1.0"?>
<svg version="1.1" xmlns="http://www.w3.org/2000/svg" width="400" height="50" style=""><path fill="#" d="M16.04248046875,39.2529296875q0-0.59814453125,0.41015625-0.760498046875t0.888671875-0.162353515625q0.83740234375,0,1.41845703125,0.751953125t1.102294921875,1.649169921875t1.033935546875,1.649169921875t1.21337890625,0.751953125q0.52978515625,0,0.965576171875-0.264892578125t0.751953125-0.66650390625t0.487060546875-0.90576171875t0.1708984375-0.999755859375q0-1.298828125-0.521240234375-2.68310546875t-1.3330078125-2.85400390625t-1.717529296875-3.0078125t-1.708984375-3.12744140625t-1.3330078125-3.238525390625t-0.52978515625-3.323974609375q0-2.51220703125,1.50390625-3.896484375t3.96484375-1.38427734375q0.83740234375,0,1.69189453125,0.2392578125t1.572265625,0.7177734375t1.170654296875,1.17919921875t0.452880859375,1.640625q0,0.3076171875-0.452880859375,0.401611328125t-0.657958984375,0.093994140625q-0.3076171875,0-0.66650390625-0.076904296875t-0.46142578125-0.418701171875t-0.29052734375-0.7861328125t-0.469970703125-0.828857421875t-0.66650390625-0.66650390625t-0.845947265625-0.281982421875q-0.76904296875,0-1.307373046875,0.316162109375t-0.87158203125,0.845947265625t-0.49560546875,1.187744140625t-0.162353515625,1.358642578125q0,1.640625,0.56396484375,3.306884765625t1.4013671875,3.3154296875t1.820068359375,3.255615234375t1.820068359375,3.12744140625t1.4013671875,2.9736328125t0.56396484375,2.75146484375q0,1.162109375-0.546875,1.96533203125t-1.38427734375,1.307373046875t-1.854248046875,0.73486328125t-1.990966796875,0.230712890625q-1.04248046875,0-2.13623046875-0.418701171875t-1.96533203125-1.153564453125t-1.435546875-1.717529296875t-0.56396484375-2.127685546875z M31.417700195312,39.2529296875q0-0.59814453125,0.41015625-0.760498046875t0.888671875-0.162353515625q0.83740234375,0,1.41845703125,0.751953125t1.102294921875,1.649169921875t1.033935546875,1.649169921875t1.21337890625,0.751953125q0.52978515625,0,0.965576171875-0.264892578125t0.751953125-0.66650390625t0.487060546875-0.90576171875t0.1708984375-0.999755859375q0-1.298828125-0.521240234375-2.68310546875t-1.3330078125-2.85400390625t-1.717529296875-3.0078125t-1.708984375-3.12744140625t-1.3330078125-3.238525390625t-0.52978515625-3.323974609375q0-2.51220703125,1.50390625-3.896484375t3.96484375-1.38427734375q0.83740234375,0,1.69189453125,0.2392578125t1.572265625,0.7177734375t1.170654296875,1.17919921875t0.452880859375,1.640625q0,0.3076171875-0.452880859375,0.401611328125t-0.657958984375,0.093994140625q-0.3076171875,0-0.66650390625-0.076904296875t-0.46142578125-0.418701171875t-0.29052734375-0.7861328125t-0.469970703125-0.828857421875t-0.66650390625-0.66650390625t-0.845947265625-0.281982421875q-0.76904296875,0-1.307373046875,0.316162109375t-0.87158203125,0.845947265625t-0.49560546875,1.187744140625t-0.162353515625,1.358642578125q0,1.640625,0.56396484375,3.306884765625t1.4013671875,3.3154296875t1.820068359375,3.255615234375t1.820068359375,3.12744140625t1.4013671875,2.9736328125t0.56396484375,2.75146484375q0,1.162109375-0.546875,1.96533203125t-1.38427734375,1.307373046875t-1.854248046875,0.73486328125t-1.990966796875,0.230712890625q-1.04248046875,0-2.13623046875-0.418701171875t-1.96533203125-1.153564453125t-1.435546875-1.717529296875t-0.56396484375-2.127685546875z M45.750439453125,18.18115234375q0-0.2392578125,0.333251953125-0.367431640625t0.435791015625-0.128173828125l0.63232421875-0.1025390625q0.63232421875-0.1025390625,1.28173828125-0.179443359375t1.2646484375-0.145263671875q2.17041015625-0.2734375,4.3408203125-0.538330078125t4.375-0.264892578125q0.1708984375,0,0.469970703125,0.01708984375t0.59814453125,0.093994140625t0.5126953125,0.213623046875t0.213623046875,0.3759765625q0,0.1708984375-0.162353515625,0.299072265625t-0.384521484375,0.196533203125t-0.452880859375,0.08544921875t-0.367431640625,0.01708984375l-0.299072265625,0t-0.299072265625-0.068359375q-0.90576171875,0-1.785888671875,0.08544921875t-1.785888671875,0.15380859375q0.2392578125,0.2734375,0.25634765625,0.76904296875t0.0341796875,0.8544921875q0,6.0498046875,0.08544921875,12.03125t0.15380859375,12.08251953125l0,0.0341796875q-0.56396484375,0.49560546875-0.965576171875,0.63232421875t-0.811767578125,0.13671875q-0.39306640625,0-0.794677734375-0.145263671875t-0.965576171875-0.623779296875l0-0.0341796875l0.13671875-13.41552734375q0-1.3330078125-0.0341796875-2.939453125t-0.0341796875-3.255615234375t0.05126953125-3.187255859375t0.2734375-2.68310546875q-1.00830078125,0.1025390625-2.13623046875,0.3076171875q-0.97412109375,0.1708984375-1.86279296875,0.1708984375l-0.3076171875,0q-0.068359375,0-0.401611328125,0.01708984375t-0.68359375-0.01708984375t-0.63232421875-0.13671875t-0.281982421875-0.341796875z M62.663745117188,26.96533203125l0-1.31591796875l0-1.35009765625q0.01708984375-1.3671875,0.111083984375-2.623291015625t0.264892578125-2.093505859375q0.1025390625-0.46142578125,0.615234375-0.56396484375t0.888671875-0.1025390625q0.70068359375,0,1.033935546875,0.1708984375t0.435791015625,0.487060546875t0.08544921875,0.751953125t-0.01708984375,0.999755859375q0,0.80322265625-0.0341796875,2.23876953125t-0.05126953125,3.1787109375l0,0.87158203125q0,1.31591796875,0.0341796875,2.71728515625q0.05126953125,1.8798828125,0.196533203125,3.597412109375t0.401611328125,3.09326171875t0.7177734375,2.110595703125q0.73486328125-0.66650390625,1.4697265625-1.871337890625t1.4013671875-2.708740234375t1.273193359375-3.170166015625t1.102294921875-3.255615234375t0.845947265625-2.99072265625t0.521240234375-2.37548828125q0.2734375-1.4013671875,0.367431640625-2.85400390625t0.093994140625-3.22998046875q0.52978515625-0.63232421875,0.8203125-0.794677734375t0.9228515625-0.162353515625q0.3076171875,0,0.623779296875,0.05126953125t0.606689453125,0.2392578125l0.2392578125,0.3759765625l0,0.42724609375q0,3.1103515625-0.299072265625,6.314697265625t-0.63232421875,6.44287109375t-0.63232421875,6.494140625t-0.299072265625,6.468505859375q0,0.49560546875,0.042724609375,1.051025390625t0.179443359375,1.051025390625l-0.068359375,0.205078125q-0.2392578125,0.39306640625-0.7861328125,0.49560546875t-0.93994140625,0.1025390625q-0.83740234375,0-1.256103515625-0.247802734375t-0.555419921875-0.68359375t-0.11962890625-1.00830078125t0.01708984375-1.239013671875q0-2.30712890625,0.205078125-4.691162109375t0.49560546875-4.691162109375q-0.2734375,0.80322265625-0.6494140625,1.939697265625t-0.880126953125,2.27294921875t-1.170654296875,2.0849609375t-1.4697265625,1.358642578125l0.0341796875-0.0341796875l-0.13671875,0.068359375l0.0341796875,0q-0.49560546875,0.2734375-0.914306640625,0.367431640625t-0.982666015625,0.093994140625q-1.1279296875,0-1.871337890625-0.66650390625t-1.204833984375-1.717529296875t-0.68359375-2.3583984375t-0.316162109375-2.623291015625t-0.093994140625-2.503662109375l0-1.956787109375q0-0.93994140625-0.01708984375-2.23876953125z M68.747729492188,40.56884765625q0.0341796875,0,0.0341796875-0.0341796875l0.0341796875,0q-0.0341796875,0.0341796875-0.068359375,0.0341796875z M81.1322265625,18.72802734375q0-1.1962890625,0.41015625-1.6064453125t1.14501953125-0.41015625q0.205078125,0,0.435791015625,0.0341796875t0.435791015625,0.1025390625q1.14501953125-0.22216796875,2.17041015625-0.22216796875q1.65771484375,0,3.0078125,0.5810546875q2.17041015625,0.9228515625,3.5888671875,2.734375t2.0849609375,4.25537109375t0.66650390625,5.00732421875q0,1.435546875-0.196533203125,2.99072265625t-0.760498046875,2.88818359375q-0.49560546875,1.1962890625-1.3671875,2.503662109375t-1.973876953125,2.47802734375t-2.37548828125,2.05078125t-2.572021484375,1.187744140625l0,0.13671875q0,0.341796875-0.179443359375,0.555419921875t-0.435791015625,0.32470703125t-0.589599609375,0.145263671875t-0.623779296875,0.0341796875q-0.1708984375,0-0.487060546875-0.0341796875t-0.615234375-0.128173828125t-0.504150390625-0.247802734375t-0.205078125-0.42724609375q0-3.1103515625-0.162353515625-6.229248046875t-0.367431640625-6.23779296875t-0.367431640625-6.229248046875t-0.162353515625-6.23779296875z M84.36220703125,17.8564453125q0.1708984375,1.640625,0.22216796875,3.272705078125t0.15380859375,3.272705078125q0.2734375,4.23828125,0.63232421875,8.433837890625t0.42724609375,8.433837890625q1.640625-1.07666015625,2.811279296875-2.4609375t1.922607421875-3.0078125t1.102294921875-3.409423828125t0.350341796875-3.682861328125q0-1.3671875-0.2392578125-3.0078125t-0.8203125-3.16162109375t-1.563720703125-2.75146484375t-2.452392578125-1.76025390625q-0.3076171875-0.1025390625-0.743408203125-0.1708984375t-1.392822265625-0.068359375q-0.1025390625,0-0.205078125,0.0341796875t-0.205078125,0.0341796875z M98.558227539062,42.2607421875q0.068359375-3.57177734375,0.299072265625-7.12646484375t0.401611328125-7.12646484375q0.0341796875-1.3671875,0.0341796875-2.486572265625t0.111083984375-1.939697265625t0.41015625-1.256103515625t0.999755859375-0.435791015625q0.59814453125,0,0.90576171875,0.1708984375t0.469970703125,0.435791015625t0.196533203125,0.59814453125t0.0341796875,0.675048828125q0,0.49560546875,0.0341796875,0.982666015625t0.0341796875,0.982666015625q0,3.60595703125-0.196533203125,7.19482421875t-0.196533203125,7.22900390625q0,0.52978515625,0.01708984375,1.068115234375t0.01708984375,1.102294921875q0,0.205078125-0.18798828125,0.341796875t-0.469970703125,0.230712890625t-0.59814453125,0.128173828125t-0.521240234375,0.0341796875q-0.2392578125,0-0.538330078125-0.0341796875t-0.5810546875-0.145263671875t-0.478515625-0.264892578125t-0.196533203125-0.35888671875z M99.515258789062,19.0869140625q0-0.1708984375,0.05126953125-0.384521484375t0.11962890625-0.384521484375q0.0341796875-0.205078125,0.1025390625-0.70068359375t0.247802734375-0.965576171875t0.49560546875-0.83740234375t0.897216796875-0.367431640625l0.32470703125,0q0.2734375,0.068359375,0.555419921875,0.1708984375t0.281982421875,0.49560546875q0,0.1708984375-0.01708984375,0.32470703125t-0.05126953125,0.341796875q-0.13671875,1.00830078125-0.264892578125,1.58935546875t-0.299072265625,0.880126953125t-0.435791015625,0.384521484375t-0.675048828125,0.11962890625q-0.13671875,0-0.367431640625-0.01708984375t-0.4443359375-0.08544921875t-0.367431640625-0.213623046875t-0.15380859375-0.350341796875z M106.08920898438,30.41748046875q0-1.00830078125,0.111083984375-2.44384765625t0.41015625-2.99072265625t0.80322265625-3.09326171875t1.290283203125-2.71728515625t1.8798828125-1.86279296875q0.90576171875-0.56396484375,2.0849609375-0.56396484375q0.2392578125,0,0.49560546875,0.0341796875q2.9736328125,0.2734375,4.571533203125,1.358642578125t2.332763671875,2.75146484375t0.8544921875,3.7939453125t0.11962890625,4.486083984375q0,1.89697265625-0.350341796875,4.127197265625t-1.239013671875,4.161376953125t-2.452392578125,3.221435546875t-3.973388671875,1.290283203125q-1.4697265625,0-2.572021484375-0.538330078125t-1.871337890625-1.435546875t-1.2646484375-2.0849609375t-0.751953125-2.4609375t-0.367431640625-2.572021484375t-0.111083984375-2.4609375z M109.55844726563,29.6484375q0,0.73486328125,0.01708984375,1.802978515625t0.145263671875,2.247314453125t0.333251953125,2.349853515625t0.606689453125,2.127685546875t1.016845703125,1.572265625t1.48681640625,0.6494140625l0.08544921875,0q0.7861328125,0,1.4013671875-0.59814453125q0.6494140625-0.63232421875,1.153564453125-1.52099609375t0.87158203125-1.871337890625t0.657958984375-1.683349609375l-0.068359375,0.15380859375q0.49560546875-1.572265625,0.66650390625-3.221435546875t0.1708984375-3.255615234375q0-0.76904296875-0.1025390625-1.854248046875t-0.333251953125-2.264404296875t-0.59814453125-2.332763671875t-0.931396484375-2.008056640625t-1.31591796875-1.298828125q-0.546875-0.32470703125-1.21337890625-0.341796875q-0.25634765625,0-0.5126953125,0.05126953125q-0.87158203125,0.1708984375-1.48681640625,0.8544921875t-0.999755859375,1.683349609375t-0.589599609375,2.1875t-0.316162109375,2.392578125t-0.128173828125,2.30712890625t-0.01708984375,1.871337890625z M117.26596679688,34.912109375l0-0.0341796875l0,0.0341796875z M124.60895996094,39.7314453125q-0.01708984375-0.5126953125-0.01708984375-1.025390625q0-1.6064453125,0.1708984375-3.22998046875q0.205078125-2.1533203125,0.2734375-4.23828125q0.068359375-2.44384765625,0.205078125-5.07568359375q0.08544921875-1.435546875,0.08544921875-2.8369140625q0-1.14501953125-0.05126953125-2.27294921875q0.1708984375-0.39306640625,0.452880859375-0.52978515625t0.709228515625-0.13671875q0.205078125,0,0.435791015625,0.0341796875t0.401611328125,0.1708984375q0.2392578125,0.0341796875,0.589599609375,0.068359375t0.538330078125,0.205078125q0.068359375,0.1025390625,0.350341796875,0.70068359375t0.66650390625,1.45263671875t0.80322265625,1.854248046875t0.80322265625,1.89697265625t0.66650390625,1.580810546875t0.350341796875,0.8544921875q1.6064453125-2.9052734375,3.14453125-5.972900390625t3.36669921875-5.784912109375q0.1708984375-0.2392578125,0.589599609375-0.350341796875t0.692138671875-0.111083984375q0.73486328125,0,1.068115234375,0.350341796875t0.435791015625,0.897216796875q0.068359375,0.341796875,0.08544921875,0.73486328125q0.01708984375,0.205078125-0.01708984375,0.42724609375q-0.068359375,0.63232421875-0.068359375,1.1962890625q0,3.98193359375-0.2734375,7.904052734375t-0.49560546875,7.921142578125q-0.0341796875,0.8203125-0.0341796875,1.708984375t0.0341796875,1.845703125q0.01708984375,0.341796875,0.01708984375,0.66650390625q0,1.50390625-0.25634765625,2.802734375q-0.2392578125,0.39306640625-0.7861328125,0.49560546875t-0.9228515625,0.1025390625q-0.80322265625,0-1.5380859375-0.3759765625l-0.18798828125-0.22216796875l-0.068359375-0.2734375t-0.0341796875-0.2734375q0-2.47802734375,0.179443359375-4.990234375t0.401611328125-5.015869140625t0.469970703125-4.998779296875t0.418701171875-4.990234375q-1.00830078125,1.6748046875-1.956787109375,3.409423828125t-1.785888671875,3.529052734375q-0.3076171875,0.70068359375-0.589599609375,1.50390625t-0.675048828125,1.435546875q-0.205078125,0.3076171875-0.692138671875,0.3759765625t-0.845947265625,0.068359375q-0.341796875,0-0.709228515625-0.11962890625t-0.504150390625-0.5126953125q-0.63232421875-1.93115234375-1.35009765625-3.77685546875t-1.45263671875-3.74267578125q0,1.2646484375,0.05126953125,3.272705078125t0.05126953125,4.161376953125t-0.068359375,4.11865234375t-0.32470703125,3.1103515625q-0.068359375,0.42724609375-0.555419921875,0.52978515625t-0.845947265625,0.1025390625q-0.2734375,0-0.521240234375-0.0341796875t-0.487060546875-0.13671875z M144.9060546875,40.654296875q0.0341796875-0.7177734375,0.0341796875-1.4013671875q0-2.47802734375,0.179443359375-4.93896484375t0.247802734375-4.93896484375q0.1025390625-2.8369140625,0.18798828125-5.62255859375t0.341796875-5.60546875q0.068359375-0.70068359375,0.401611328125-0.914306640625t0.999755859375-0.213623046875q0.3076171875,0,0.8203125,0.11962890625t0.5126953125,0.5810546875q0.2392578125,0.0341796875,0.478515625,0.0341796875q0.35888671875,0,0.73486328125-0.068359375q0.615234375-0.1025390625,1.256103515625-0.230712890625t1.273193359375-0.247802734375t1.21337890625-0.11962890625q0.13671875,0,0.384521484375,0.01708984375t0.49560546875,0.1025390625t0.418701171875,0.213623046875t0.1708984375,0.333251953125t-0.401611328125,0.367431640625t-1.051025390625,0.281982421875t-1.4013671875,0.205078125t-1.4697265625,0.145263671875t-1.273193359375,0.093994140625t-0.794677734375,0.0341796875l-0.0341796875,6.42578125l0.0341796875,3.19580078125q0.52978515625,0,1.58935546875-0.0341796875q0.42724609375-0.01708984375,0.8544921875-0.01708984375q0.6494140625,0,1.3330078125,0.0341796875q1.1279296875,0.05126953125,2.03369140625,0.205078125t1.14501953125,0.546875q0,0.2392578125-0.247802734375,0.384521484375t-0.555419921875,0.213623046875t-0.623779296875,0.08544921875t-0.452880859375,0.01708984375q-1.2646484375,0-2.54638671875-0.05126953125t-2.529296875-0.205078125q0,2.10205078125-0.111083984375,4.169921875t-0.111083984375,4.169921875q0,0.90576171875,0.01708984375,1.785888671875t0.205078125,1.751708984375q0.46142578125-0.0341796875,0.999755859375-0.08544921875t1.09375-0.128173828125t1.068115234375-0.128173828125t0.888671875-0.05126953125q0.205078125,0,0.555419921875,0.05126953125t0.7177734375,0.1708984375t0.63232421875,0.299072265625t0.264892578125,0.418701171875q0,0.2734375-0.504150390625,0.487060546875t-1.290283203125,0.341796875t-1.717529296875,0.179443359375t-1.802978515625,0.068359375t-1.572265625,0.01708984375l-0.9912109375,0q-0.93994140625,0-1.375732421875-0.350341796875t-0.606689453125-0.914306640625q-0.13671875-0.46142578125-0.11962890625-1.04248046875l0-0.2392578125z M159.11916503906,42.2607421875q0.068359375-3.57177734375,0.299072265625-7.12646484375t0.401611328125-7.12646484375q0.0341796875-1.3671875,0.0341796875-2.486572265625t0.111083984375-1.939697265625t0.41015625-1.256103515625t0.999755859375-0.435791015625q0.59814453125,0,0.90576171875,0.1708984375t0.469970703125,0.435791015625t0.196533203125,0.59814453125t0.0341796875,0.675048828125q0,0.49560546875,0.0341796875,0.982666015625t0.0341796875,0.982666015625q0,3.60595703125-0.196533203125,7.19482421875t-0.196533203125,7.22900390625q0,0.52978515625,0.01708984375,1.068115234375t0.01708984375,1.102294921875q0,0.205078125-0.18798828125,0.341796875t-0.469970703125,0.230712890625t-0.59814453125,0.128173828125t-0.521240234375,0.0341796875q-0.2392578125,0-0.538330078125-0.0341796875t-0.5810546875-0.145263671875t-0.478515625-0.264892578125t-0.196533203125-0.35888671875z M160.07619628906,19.0869140625q0-0.1708984375,0.05126953125-0.384521484375t0.11962890625-0.384521484375q0.0341796875-0.205078125,0.1025390625-0.70068359375t0.247802734375-0.965576171875t0.49560546875-0.83740234375t0.897216796875-0.367431640625l0.32470703125,0q0.2734375,0.068359375,0.555419921875,0.1708984375t0.281982421875,0.49560546875q0,0.1708984375-0.01708984375,0.32470703125t-0.05126953125,0.341796875q-0.13671875,1.00830078125-0.264892578125,1.58935546875t-0.299072265625,0.880126953125t-0.435791015625,0.384521484375t-0.675048828125,0.11962890625q-0.13671875,0-0.367431640625-0.01708984375t-0.4443359375-0.08544921875t-0.367431640625-0.213623046875t-0.15380859375-0.350341796875z"/><path fill="#" d=""/></svg>
